<svg width="60" height="60" viewBox="0 0 60 60" fill="none" xmlns="http://www.w3.org/2000/svg">
<path d="M4.86899 8.03749C7.5671 7.06589 12.9092 5.93532 18.9688 8.96642C20.602 9.87214 22.1442 11.0182 23.4631 12.2924C25.589 11.9083 27.7791 11.7144 30.0019 11.7144C36.6551 11.7144 42.9631 13.4579 47.764 16.6228C50.2487 18.2634 52.2252 20.2086 53.6354 22.4057C55.2046 24.855 56.0019 27.4867 56 30.3103C56 33.0564 55.2046 35.6918 53.6335 38.1392C52.2232 40.3383 50.2468 42.2815 47.762 43.9221C42.9631 47.0871 36.6551 48.8286 30 48.8286C27.777 48.8286 25.5871 48.6346 23.4612 48.2506C22.1422 49.5247 20.6001 50.6709 18.9668 51.5766C12.9052 54.6077 7.56517 53.477 4.86705 52.5035C3.98066 52.1836 3.709 51.0587 4.36268 50.382C6.26555 48.4117 9.41377 44.5156 8.6398 40.9745C5.63135 37.893 4 34.1773 4 30.2346C4 26.3658 5.63135 22.6501 8.64173 19.5666C9.4157 16.0255 6.26749 12.1313 4.36461 10.1611C3.709 9.48419 3.9826 8.35749 4.86899 8.03749ZM29.7304 16.9001C18.0571 16.9001 8.59326 23.0243 8.59326 30.5778C8.59326 33.8689 10.3894 36.8903 13.3843 39.2504C14.2281 41.9403 13.7336 44.9733 11.9024 48.3476C11.8151 48.5106 11.7336 48.6734 11.6444 48.8344C13.2157 48.7045 14.8042 48.2721 16.4122 47.4828C17.6265 46.8001 18.7903 45.9332 19.7835 44.9752L21.6107 43.2124C24.111 43.8853 26.8537 44.2576 29.7304 44.2576C41.4036 44.2576 50.8674 38.1353 50.8694 30.5778C50.8694 23.0243 41.4036 16.9001 29.7304 16.9001ZM19.6166 27.4343C21.3372 27.4343 22.7318 28.8227 22.7318 30.5352C22.7318 32.2476 21.3372 33.6361 19.6166 33.6361C17.8962 33.6361 16.5016 32.2476 16.5016 30.5352C16.5016 28.8227 17.8962 27.4343 19.6166 27.4343ZM29.6451 27.4343C31.3655 27.4343 32.7603 28.8227 32.7603 30.5352C32.7603 32.2476 31.3655 33.6361 29.6451 33.6361C27.9245 33.6361 26.5298 32.2476 26.5298 30.5352C26.5298 28.8227 27.9245 27.4343 29.6451 27.4343ZM39.6733 27.4343C41.3918 27.4343 42.7884 28.8227 42.7884 30.5352C42.7884 32.2476 41.3938 33.6361 39.6733 33.6361C37.9528 33.6361 36.5581 32.2476 36.5581 30.5352C36.5581 28.8227 37.9528 27.4343 39.6733 27.4343Z" fill="#F5455C"/>
</svg>
