<svg width="60" height="60" viewBox="0 0 60 60" fill="none" xmlns="http://www.w3.org/2000/svg">
<path d="M14.7517 37.215C14.7517 40.1768 12.358 42.5706 9.39614 42.5706C6.43432 42.5706 4.04053 40.1768 4.04053 37.215C4.04053 34.2532 6.43432 31.8594 9.39614 31.8594H14.7517V37.215Z" fill="#E01E5A"/>
<path d="M17.4297 37.215C17.4297 34.2532 19.8235 31.8594 22.7853 31.8594C25.7471 31.8594 28.1409 34.2532 28.1409 37.215V50.604C28.1409 53.5658 25.7471 55.9596 22.7853 55.9596C19.8235 55.9596 17.4297 53.5658 17.4297 50.604V37.215Z" fill="#E01E5A"/>
<path d="M22.7853 15.7112C19.8235 15.7112 17.4297 13.3174 17.4297 10.3556C17.4297 7.3938 19.8235 5 22.7853 5C25.7471 5 28.1409 7.3938 28.1409 10.3556V15.7112H22.7853Z" fill="#36C5F0"/>
<path d="M22.7852 18.4297C25.747 18.4297 28.1408 20.8235 28.1408 23.7853C28.1408 26.7471 25.747 29.1409 22.7852 29.1409H9.35561C6.39379 29.1409 4 26.7471 4 23.7853C4 20.8235 6.39379 18.4297 9.35561 18.4297H22.7852Z" fill="#36C5F0"/>
<path d="M44.248 23.7853C44.248 20.8235 46.6418 18.4297 49.6037 18.4297C52.5655 18.4297 54.9593 20.8235 54.9593 23.7853C54.9593 26.7471 52.5655 29.1409 49.6037 29.1409H44.248V23.7853Z" fill="#2EB67D"/>
<path d="M41.5706 23.7852C41.5706 26.747 39.1768 29.1408 36.215 29.1408C33.2532 29.1408 30.8594 26.747 30.8594 23.7852V10.3556C30.8594 7.3938 33.2532 5 36.215 5C39.1768 5 41.5706 7.3938 41.5706 10.3556V23.7852Z" fill="#2EB67D"/>
<path d="M36.215 45.248C39.1768 45.248 41.5706 47.6418 41.5706 50.6037C41.5706 53.5655 39.1768 55.9593 36.215 55.9593C33.2532 55.9593 30.8594 53.5655 30.8594 50.6037V45.248H36.215Z" fill="#ECB22E"/>
<path d="M36.215 42.5706C33.2532 42.5706 30.8594 40.1768 30.8594 37.215C30.8594 34.2532 33.2532 31.8594 36.215 31.8594H49.6446C52.6064 31.8594 55.0002 34.2532 55.0002 37.215C55.0002 40.1768 52.6064 42.5706 49.6446 42.5706H36.215Z" fill="#ECB22E"/>
</svg>
