<svg width="60" height="60" viewBox="0 0 60 60" fill="none" xmlns="http://www.w3.org/2000/svg">
<path d="M40.2756 23.5667H54.5555C55.9061 23.5667 57 24.6141 57 25.9081V38.3856C56.999 39.5179 56.7659 40.6389 56.314 41.6845C55.8621 42.7302 55.2004 43.6801 54.3665 44.4801C53.5326 45.28 52.5429 45.9142 51.4539 46.3466C50.3649 46.779 49.198 47.001 48.0197 47H47.9803C46.802 47.001 45.6351 46.779 44.5461 46.3466C43.4571 45.9142 42.4674 45.28 41.6335 44.4801C40.7996 43.6801 40.1379 42.7302 39.686 41.6845C39.2341 40.6389 39.001 39.5179 39 38.3856V24.7962C39 24.1169 39.5726 23.5667 40.2756 23.5667ZM49.9311 21.1C53.122 21.1 55.7126 18.6144 55.7126 15.5519C55.7126 12.4856 53.122 10 49.9272 10C46.7323 10 44.1417 12.4856 44.1417 15.5519C44.1417 18.6144 46.7323 21.1 49.9272 21.1H49.9311Z" fill="#5059C9"/>
<path d="M32.635 21.25C33.7203 21.2515 34.7952 21.0426 35.7984 20.6351C36.8015 20.2277 37.7133 19.6297 38.4816 18.8754C39.2499 18.121 39.8596 17.2251 40.276 16.2387C40.6924 15.2524 40.9072 14.195 40.9082 13.1269C40.9077 12.0582 40.6931 11.0001 40.2767 10.0131C39.8604 9.02602 39.2504 8.12946 38.4816 7.37466C37.7128 6.61985 36.8004 6.02161 35.7966 5.61414C34.7927 5.20668 33.717 4.99799 32.6311 5.00001C31.5462 4.999 30.4717 5.20831 29.469 5.61599C28.4663 6.02366 27.555 6.62172 26.7871 7.37602C26.0192 8.13032 25.4098 9.02608 24.9937 10.0122C24.5776 10.9982 24.3629 12.0553 24.3619 13.1231C24.3619 17.6115 28.0627 21.25 32.6311 21.25H32.635ZM43.6634 23.75H20.3327C19.7001 23.7651 19.0994 24.0268 18.6627 24.4775C18.226 24.9283 17.9889 25.5312 18.0036 26.1539V40.5769C17.9186 44.3152 19.3447 47.9339 21.9686 50.6382C24.5926 53.3425 28.1998 54.9113 31.998 55C35.797 54.9123 39.4052 53.3439 42.03 50.6395C44.6547 47.9351 46.0814 44.3159 45.9964 40.5769V26.1539C46.0037 25.8452 45.9491 25.5382 45.8358 25.2504C45.7224 24.9625 45.5526 24.6994 45.3359 24.4762C45.1193 24.253 44.86 24.0739 44.5731 23.9493C44.2861 23.8247 43.9769 23.757 43.6634 23.75Z" fill="#7B83EB"/>
<path opacity="0.1" d="M33 24V43.7624C32.997 44.3556 32.7549 44.9236 32.3264 45.3427C31.898 45.7618 31.3179 45.998 30.7125 46H19.1022C18.3757 44.2359 18.0018 42.3515 18.0006 40.4492V26.3504C17.9935 26.0488 18.0471 25.7488 18.1585 25.4676C18.2698 25.1864 18.4367 24.9294 18.6495 24.7114C18.8624 24.4934 19.117 24.3187 19.3988 24.1973C19.6807 24.0759 19.9842 24.0101 20.292 24.0038H32.9962L33 24Z" fill="black"/>
<path opacity="0.2" d="M31.9961 24.0037V44.7842C31.991 45.371 31.7437 45.9323 31.3078 46.3469C30.8718 46.7615 30.2821 46.9961 29.6661 47H19.7168C19.2773 46.2318 18.9272 45.4201 18.673 44.5793C18.2284 43.1912 18.0018 41.748 18.0006 40.2966V26.3238C17.9934 26.0255 18.0479 25.7287 18.1611 25.4504C18.2742 25.1722 18.4438 24.9179 18.6602 24.7021C18.8766 24.4863 19.1355 24.3132 19.4221 24.1927C19.7087 24.0723 20.0174 24.0068 20.3306 24H32L31.9961 24.0037Z" fill="black"/>
<path opacity="0.2" d="M31.9961 24.0038V42.7389C31.991 43.3377 31.7437 43.9105 31.3078 44.3336C30.8718 44.7566 30.2821 44.996 29.6661 45H18.673C18.2284 43.5835 18.0018 42.1108 18.0006 40.6298V26.3713C17.9934 26.0669 18.0479 25.764 18.1611 25.4801C18.2742 25.1961 18.4438 24.9366 18.6602 24.7164C18.8766 24.4962 19.1355 24.3196 19.4221 24.1967C19.7087 24.0737 20.0174 24.0069 20.3306 24H32L31.9961 24.0038Z" fill="black"/>
<path opacity="0.2" d="M31 24.0038V42.7389C30.9948 43.3377 30.7423 43.9105 30.297 44.3336C29.8518 44.7566 29.2496 44.996 28.6205 45H18.6874C18.2333 43.5835 18.0019 42.1108 18.0007 40.6298V26.3713C17.9932 26.0669 18.0489 25.764 18.1645 25.4801C18.2801 25.1961 18.4533 24.9366 18.6742 24.7164C18.8952 24.4962 19.1596 24.3196 19.4523 24.1967C19.745 24.0737 20.0603 24.0069 20.3801 24L31 24.0038Z" fill="black"/>
<path opacity="0.1" d="M33 17.1969V20.9778C32.8019 20.9889 32.6146 21 32.4129 21C32.2148 21 32.0275 20.9889 31.8258 20.9778C30.2171 20.8508 28.6893 20.2034 27.4626 19.1291C26.2359 18.0548 25.3736 16.609 25 15H30.8532C31.4208 15.0019 31.9646 15.2334 32.3666 15.6441C32.7686 16.0548 32.9962 16.6115 33 17.1932V17.1969Z" fill="black"/>
<path opacity="0.2" d="M32 18.297V21C30.4807 20.8851 29.023 20.3573 27.7877 19.475C26.5525 18.5927 25.5878 17.3902 25 16H29.6732C30.2887 16.003 30.8781 16.2459 31.3137 16.6759C31.7493 17.1059 31.9959 17.6884 32 18.297Z" fill="black"/>
<path opacity="0.2" d="M32 18.297V21C30.4807 20.8851 29.023 20.3573 27.7877 19.475C26.5525 18.5927 25.5878 17.3902 25 16H29.6732C30.2887 16.003 30.8781 16.2459 31.3137 16.6759C31.7493 17.1059 31.9959 17.6884 32 18.297Z" fill="black"/>
<path opacity="0.2" d="M31 18.3953V21C29.6694 20.6911 28.4321 20.0771 27.3893 19.2081C26.3465 18.339 25.5277 17.2397 25 16H28.5631C29.2084 16.0032 29.8264 16.2566 30.2827 16.7051C30.739 17.1536 30.9968 17.761 31 18.3953Z" fill="black"/>
<path d="M5.33366 16H28.6663C29.9563 16 31 17.0456 31 18.334V41.666C31 41.9728 30.9396 42.2767 30.8223 42.5601C30.705 42.8435 30.533 43.101 30.3163 43.3178C30.0995 43.5346 29.8422 43.7064 29.5591 43.8235C29.276 43.9405 28.9726 44.0005 28.6663 44H5.32975C5.0238 44 4.72085 43.9396 4.43819 43.8223C4.15553 43.705 3.89871 43.5331 3.68237 43.3164C3.46603 43.0997 3.29442 42.8424 3.17734 42.5592C3.06026 42.276 3 41.9725 3 41.666V18.334C3 17.0417 4.0437 16 5.33366 16Z" fill="url(#paint0_linear_2695_86829)"/>
<path d="M23 25.2773H18.4437V37H15.5411V25.2773H11V23H22.9962L23 25.2773Z" fill="white"/>
<defs>
<linearGradient id="paint0_linear_2695_86829" x1="7.86277" y1="14.179" x2="26.1362" y2="45.8236" gradientUnits="userSpaceOnUse">
<stop stop-color="#5A62C3"/>
<stop offset="0.5" stop-color="#4D55BD"/>
<stop offset="1" stop-color="#3940AB"/>
</linearGradient>
</defs>
</svg>
