<?xml version="1.0" encoding="UTF-8" standalone="no"?>
<!DOCTYPE svg PUBLIC "-//W3C//DTD SVG 1.1//EN" "http://www.w3.org/Graphics/SVG/1.1/DTD/svg11.dtd">
<svg width="100%" height="100%" viewBox="0 0 117 50" version="1.1" xmlns="http://www.w3.org/2000/svg" xmlns:xlink="http://www.w3.org/1999/xlink" xml:space="preserve" xmlns:serif="http://www.serif.com/" style="fill-rule:evenodd;clip-rule:evenodd;stroke-linejoin:round;stroke-miterlimit:2;">
    <path id="circle" d="M25.195,0C11.283,0 0,11.195 0,25C0,38.805 11.283,50 25.195,50C39.107,50 50.39,38.805 50.39,25C50.39,11.195 39.107,0 25.195,0Z" style="fill-rule:nonzero;"/>
    <path id="IO" d="M35.215,17.747L34.879,17.747C33.35,17.747 30.744,18.299 30.744,22.218L30.744,27.805C30.744,31.724 33.362,32.276 34.879,32.276L35.215,32.276C36.744,32.276 39.351,31.724 39.351,27.805L39.351,22.218C39.351,18.299 36.733,17.747 35.215,17.747ZM36.374,27.954C36.374,28.712 35.852,29.391 35.053,29.391C34.254,29.391 33.732,28.678 33.732,27.954L33.732,22.046C33.732,21.322 34.254,20.609 35.053,20.609C35.852,20.609 36.374,21.299 36.374,22.046L36.374,27.954ZM28.103,14.207L22.148,36.241C22.056,36.598 21.72,36.85 21.349,36.85L20.816,36.85C20.272,36.85 19.866,36.333 20.017,35.816L25.971,13.782C26.064,13.425 26.4,13.172 26.77,13.172L27.303,13.172C27.848,13.161 28.242,13.678 28.103,14.207ZM16.461,30.609C16.461,31.333 15.87,31.919 15.14,31.919L14.816,31.919C14.086,31.919 13.495,31.333 13.495,30.609L13.495,19.391C13.495,18.667 14.086,18.08 14.816,18.08L15.14,18.08C15.87,18.08 16.461,18.667 16.461,19.391L16.461,30.609Z" style="fill:white;fill-rule:nonzero;"/>
    <path id="words" d="M105.263,27.92C104.776,27.92 104.382,28.31 104.382,28.793C104.382,29.276 104.776,29.667 105.263,29.667C105.749,29.667 106.143,29.276 106.143,28.793C106.155,28.31 105.761,27.92 105.263,27.92ZM112.167,23.609L112.167,27.15C112.167,27.943 112.456,28.471 113.244,28.471C113.95,28.471 114.286,28.035 114.286,27.127L114.286,23.598C114.286,22.874 114.032,22.322 113.221,22.322C112.502,22.333 112.167,22.793 112.167,23.609ZM116.059,23.69L116.059,27.081C116.059,28.908 114.993,29.793 113.209,29.793C111.379,29.793 110.406,28.897 110.406,27.092L110.406,23.632C110.406,21.862 111.564,21.012 113.279,21.012C115.039,21.023 116.059,21.966 116.059,23.69ZM107.324,21.15L109.074,21.15L109.074,29.667L107.324,29.667L107.324,21.15ZM107.324,18.127L109.097,18.127L109.097,19.897L107.324,19.897L107.324,18.127ZM101.753,24.598L101.753,23.632C101.753,22.851 101.579,22.276 100.733,22.276C99.946,22.276 99.668,22.77 99.668,23.655L99.668,24.598L101.753,24.598ZM99.656,25.782L99.656,27.081C99.656,27.828 99.83,28.54 100.699,28.54C101.567,28.54 101.695,27.908 101.695,27.218L101.695,27.172L103.409,27.172L103.409,27.218C103.409,28.15 103.177,29.805 100.733,29.805C98.359,29.805 97.93,28.529 97.93,26.805L97.93,23.862C97.93,22.655 98.417,21.035 100.733,21.035C102.795,21.035 103.444,22.264 103.444,23.862L103.444,25.782L99.656,25.782ZM94.999,24.598L94.999,23.632C94.999,22.851 94.826,22.276 93.98,22.276C93.192,22.276 92.914,22.77 92.914,23.655L92.914,24.598L94.999,24.598ZM92.891,25.782L92.891,27.081C92.891,27.828 93.065,28.54 93.934,28.54C94.802,28.54 94.941,27.908 94.941,27.218L94.941,27.172L96.656,27.172L96.656,27.218C96.656,28.15 96.424,29.805 93.991,29.805C91.617,29.805 91.188,28.529 91.188,26.805L91.188,23.862C91.188,22.655 91.675,21.035 93.991,21.035C96.053,21.035 96.702,22.264 96.702,23.862L96.702,25.782L92.891,25.782ZM85.153,28.655C85.524,27.977 87.319,24.494 88.373,22.506L85.454,22.506L85.454,21.15L90.319,21.15L90.319,22.195C90.099,22.655 88.003,26.805 87.192,28.31L90.354,28.31L90.192,29.667L85.141,29.667L85.153,28.655ZM82.327,25.713L81.909,25.713C80.913,25.713 80.265,26.058 80.265,27.184L80.265,27.31C80.265,27.988 80.543,28.483 81.226,28.483C82.014,28.483 82.327,28 82.327,26.793L82.327,25.713ZM84.041,28.046C84.041,28.598 84.041,29.368 84.076,29.667L82.466,29.667C82.431,29.483 82.35,29.138 82.35,29.023C82.014,29.586 81.423,29.805 80.682,29.805C79.187,29.805 78.597,28.667 78.597,27.356L78.597,27.195C78.597,25.172 80.172,24.563 81.979,24.563L82.292,24.563L82.292,23.368C82.292,22.655 82.176,22.241 81.481,22.241C80.809,22.241 80.635,22.678 80.635,23.264L80.635,23.425L78.909,23.425L78.909,23.287C78.909,22.081 79.465,21.023 81.539,21.023C83.404,21.023 84.029,21.931 84.029,23.253L84.041,28.046ZM68.403,23.621C68.403,21.977 68.403,21.552 68.379,21.15L70.048,21.15C70.106,21.402 70.106,21.632 70.129,21.908C70.441,21.345 71.032,21.012 71.878,21.012C72.689,21.012 73.233,21.287 73.465,21.954C73.801,21.46 74.334,21.012 75.365,21.012C76.43,21.012 77.334,21.448 77.334,23.104L77.334,29.667L75.562,29.667L75.562,23.391C75.562,22.759 75.388,22.368 74.739,22.368C73.928,22.368 73.743,22.931 73.743,23.805L73.743,29.667L71.971,29.667L71.971,23.437C71.971,22.586 71.693,22.356 71.125,22.356C70.314,22.356 70.14,22.931 70.14,23.816L70.14,29.667L68.391,29.667L68.403,23.621ZM64.916,25.713L64.499,25.713C63.491,25.713 62.854,26.058 62.854,27.184L62.854,27.31C62.854,27.988 63.132,28.483 63.815,28.483C64.603,28.483 64.916,28 64.916,26.793L64.916,25.713ZM66.619,28.046C66.619,28.598 66.619,29.368 66.653,29.667L65.043,29.667C65.009,29.483 64.927,29.138 64.927,29.023C64.592,29.586 64.001,29.805 63.259,29.805C61.765,29.805 61.174,28.667 61.174,27.356L61.174,27.195C61.174,25.172 62.75,24.563 64.557,24.563L64.87,24.563L64.87,23.368C64.87,22.655 64.754,22.241 64.059,22.241C63.387,22.241 63.213,22.678 63.213,23.264L63.213,23.425L61.487,23.425L61.487,23.287C61.487,22.081 62.043,21.023 64.117,21.023C65.982,21.023 66.607,21.931 66.607,23.253L66.619,28.046Z" style="fill-rule:nonzero;"/>
</svg>
