<svg width="32" height="32" viewBox="0 0 50 50" version="1.1" xmlns="http://www.w3.org/2000/svg" xmlns:xlink="http://www.w3.org/1999/xlink" xml:space="preserve" xmlns:serif="http://www.serif.com/" style="fill-rule:evenodd;clip-rule:evenodd;stroke-linejoin:round;stroke-miterlimit:2;">
    <path id="circle" d="M25.195,0C11.283,0 0,11.195 0,25C0,38.805 11.283,50 25.195,50C39.107,50 50.39,38.805 50.39,25C50.39,11.195 39.107,0 25.195,0Z" style="fill:rgb(242,242,242);fill-rule:nonzero;"/>
    <path id="IO" d="M35.215,17.747L34.879,17.747C33.35,17.747 30.744,18.299 30.744,22.218L30.744,27.805C30.744,31.724 33.362,32.276 34.879,32.276L35.215,32.276C36.744,32.276 39.351,31.724 39.351,27.805L39.351,22.218C39.351,18.299 36.733,17.747 35.215,17.747ZM36.374,27.954C36.374,28.712 35.852,29.391 35.053,29.391C34.254,29.391 33.732,28.678 33.732,27.954L33.732,22.046C33.732,21.322 34.254,20.609 35.053,20.609C35.852,20.609 36.374,21.299 36.374,22.046L36.374,27.954ZM28.103,14.207L22.148,36.241C22.056,36.598 21.72,36.85 21.349,36.85L20.816,36.85C20.272,36.85 19.866,36.333 20.017,35.816L25.971,13.782C26.064,13.425 26.4,13.172 26.77,13.172L27.303,13.172C27.848,13.161 28.242,13.678 28.103,14.207ZM16.461,30.609C16.461,31.333 15.87,31.919 15.14,31.919L14.816,31.919C14.086,31.919 13.495,31.333 13.495,30.609L13.495,19.391C13.495,18.667 14.086,18.08 14.816,18.08L15.14,18.08C15.87,18.08 16.461,18.667 16.461,19.391L16.461,30.609Z" style="fill-rule:nonzero;"/>
</svg>
